HIERARCHY
ROOT Hips
{
 OFFSET 0.000000 0.000000 0.000000
 CHANNELS 6 Xposition Yposition Zposition Yrotation Xrotation Zrotation
 JOINT Chest
 {
  OFFSET 0.000000 14.374500 -0.011500
  CHANNELS 3 Yrotation Xrotation Zrotation
  JOINT Chest2
  {
   OFFSET 0.000000 9.203400 0.023400
   CHANNELS 3 Yrotation Xrotation Zrotation
   JOINT Chest3
   {
    OFFSET 0.000000 9.162700 0.000000
    CHANNELS 3 Yrotation Xrotation Zrotation
    JOINT Chest4
    {
     OFFSET 0.000000 9.153300 0.000000
     CHANNELS 3 Yrotation Xrotation Zrotation
     JOINT Neck
     {
      OFFSET 0.000000 13.353600 0.000000
      CHANNELS 3 Yrotation Xrotation Zrotation
      JOINT Head
      {
       OFFSET 0.000000 8.573800 0.049400
       CHANNELS 3 Yrotation Xrotation Zrotation
       End Site
       {
        OFFSET 0.000000 16.219200 0.026100
       }
      }
     }
     JOINT RightCollar
     {
      OFFSET -2.497100 8.876100 0.000000
      CHANNELS 3 Yrotation Xrotation Zrotation
      JOINT RightShoulder
      {
       OFFSET -12.289200 0.000000 0.000000
       CHANNELS 3 Yrotation Xrotation Zrotation
       JOINT RightElbow
       {
        OFFSET 0.000000 -28.194900 0.000000
        CHANNELS 3 Yrotation Xrotation Zrotation
        JOINT RightWrist
        {
         OFFSET 0.000000 -23.009700 0.007900
         CHANNELS 3 Yrotation Xrotation Zrotation
         End Site
         {
          OFFSET 0.000000 -17.151500 0.000000
         }
        }
       }
      }
     }
     JOINT LeftCollar
     {
      OFFSET 2.497100 8.876100 0.000000
      CHANNELS 3 Yrotation Xrotation Zrotation
      JOINT LeftShoulder
      {
       OFFSET 12.289200 0.000000 0.000000
       CHANNELS 3 Yrotation Xrotation Zrotation
       JOINT LeftElbow
       {
        OFFSET 0.000000 -28.194900 0.000000
        CHANNELS 3 Yrotation Xrotation Zrotation
        JOINT LeftWrist
        {
         OFFSET 0.000000 -23.009700 0.007900
         CHANNELS 3 Yrotation Xrotation Zrotation
         End Site
         {
          OFFSET 0.000000 -17.151500 0.000000
         }
        }
       }
      }
     }
    }
   }
  }
 }
 JOINT RightHip
 {
  OFFSET -11.777600 0.056700 0.005700
  CHANNELS 3 Yrotation Xrotation Zrotation
  JOINT RightKnee
  {
   OFFSET 0.000000 -39.966000 -0.004200
   CHANNELS 3 Yrotation Xrotation Zrotation
   JOINT RightAnkle
   {
    OFFSET 0.000000 -41.981900 0.027400
    CHANNELS 3 Yrotation Xrotation Zrotation
    JOINT RightToe
    {
     OFFSET 0.000000 -9.910600 16.950100
     CHANNELS 3 Yrotation Xrotation Zrotation
     End Site
     {
      OFFSET 0.000000 -1.461000 6.191600
     }
    }
   }
  }
 }
 JOINT LeftHip
 {
  OFFSET 11.777600 0.056700 0.005700
  CHANNELS 3 Yrotation Xrotation Zrotation
  JOINT LeftKnee
  {
   OFFSET 0.000000 -39.966000 -0.004200
   CHANNELS 3 Yrotation Xrotation Zrotation
   JOINT LeftAnkle
   {
    OFFSET 0.000000 -41.981900 0.027400
    CHANNELS 3 Yrotation Xrotation Zrotation
    JOINT LeftToe
    {
     OFFSET 0.000000 -9.910600 16.950100
     CHANNELS 3 Yrotation Xrotation Zrotation
     End Site
     {
      OFFSET 0.000000 -1.461000 6.191600
     }
    }
   }
  }
 }
}
MOTION
Frames: 9
Frame Time: 0.008333
-6.922270 130.458226 93.771916 174.773561 -49.116965 -3.016312 4.769459 28.971101 4.817416 0.689429 5.533077 0.702265 1.112159 8.651406 1.131742 3.536908 23.241211 3.584543 6.865899 11.095560 -4.598937 8.775593 -13.869063 -6.794204 1.066508 -4.239238 -1.207829 -13.707669 -18.313429 -2.076158 -41.899445 -8.951273 -3.809046 -12.818970 -4.621074 0.154393 -9.130676 -6.394294 2.531780 13.906870 -18.379008 -2.639796 54.380959 -11.267651 -4.462828 19.055198 -26.299128 2.208336 8.058057 -28.502582 1.035719 -77.690887 85.924208 -80.153496 3.823069 -25.478343 8.242815 -0.001127 -0.003145 -0.000659 -4.203874 -29.219926 -2.405292 145.586737 72.161985 156.363927 -4.220015 12.065155 -8.264227 -0.006967 -0.010715 -0.004073
-6.920412 130.456246 93.766355 174.753054 -49.055874 -2.978513 4.792688 28.934301 4.801665 0.694603 5.532126 0.701739 1.151080 8.658765 1.123901 3.534013 23.227614 3.598273 6.763611 11.171051 -4.558135 8.589815 -13.802078 -6.666454 1.150884 -4.327946 -1.172956 -13.284490 -18.268261 -2.019117 -41.862507 -8.704824 -4.049677 -12.948351 -4.674757 0.091576 -9.228545 -6.510124 2.432826 13.663619 -18.373459 -2.881223 54.427219 -11.185514 -4.277226 19.141402 -26.465729 2.276722 8.097824 -28.562802 0.963562 -77.570054 85.938913 -80.010774 3.842644 -25.482229 8.234807 -0.001879 -0.000100 -0.001098 -4.181280 -29.277076 -2.416286 145.604415 72.181646 156.366900 -4.206502 12.056527 -8.254672 -0.010763 -0.012833 -0.006292
-6.916952 130.455797 93.758178 174.741457 -48.997422 -2.953350 4.810469 28.898731 4.789503 0.699626 5.528740 0.700393 1.184137 8.642538 1.107658 3.539113 23.230314 3.617540 6.627820 11.256784 -4.493609 8.371713 -13.696690 -6.493046 1.211050 -4.404696 -1.138207 -12.931532 -18.250676 -1.973194 -41.693525 -8.402598 -4.292152 -13.080835 -4.702199 0.059826 -9.331330 -6.608773 2.337525 13.431375 -18.371790 -3.100055 54.426439 -11.084982 -4.087936 19.206472 -26.599044 2.339611 8.157541 -28.626003 0.878199 -77.432057 85.973943 -79.824354 3.858294 -25.471902 8.223610 -0.008172 -0.002583 -0.004778 -4.169487 -29.326672 -2.410361 145.643293 72.203121 156.398958 -4.199430 12.024744 -8.260236 -0.004569 -0.017986 -0.002671
-6.910095 130.461097 93.744515 174.735707 -48.966518 -2.946120 4.863574 28.900793 4.805420 0.706463 5.515436 0.695719 1.182793 8.595291 1.092455 3.622305 23.187103 3.571068 6.415952 11.397110 -4.304955 8.130281 -13.556298 -6.287523 1.173975 -4.414319 -1.001717 -12.655495 -18.257317 -1.931398 -41.373130 -8.065016 -4.541714 -13.191260 -4.696370 0.073285 -9.517714 -6.618285 2.329543 13.209978 -18.375611 -3.289292 54.318957 -10.963705 -3.875936 19.260370 -26.678504 2.393691 8.189176 -28.655317 0.849996 -77.164913 85.988327 -79.542591 3.856794 -25.460104 8.231135 -0.010665 -0.011327 -0.006235 -4.169779 -29.350041 -2.390975 145.684023 72.222648 156.432647 -4.194263 12.016658 -8.258424 -0.000972 -0.023816 -0.000568
-6.910347 130.458081 93.736572 174.727887 -48.894180 -2.914520 4.892686 28.853036 4.781483 0.711597 5.494970 0.689790 1.164705 8.570791 1.095805 3.657364 23.107744 3.516137 6.228130 11.572674 -4.137544 7.873701 -13.388049 -6.063923 1.152882 -4.354992 -0.902124 -12.432739 -18.310026 -1.880432 -40.910014 -7.716444 -4.788202 -13.254155 -4.656031 0.136779 -9.645373 -6.594355 2.278372 12.996832 -18.382316 -3.442771 54.050051 -10.819766 -3.624281 19.312840 -26.691871 2.426507 8.223136 -28.725476 0.802698 -77.007770 86.000250 -79.389612 3.837732 -25.461195 8.234652 -0.014346 -0.009866 -0.008387 -4.160214 -29.421210 -2.401419 145.700946 72.238309 156.437232 -4.183581 12.008304 -8.248413 -0.001921 -0.019045 -0.001123
-6.913716 130.447283 93.735201 174.762285 -48.783371 -2.908922 4.882748 28.752887 4.740165 0.713954 5.470408 0.683139 1.150418 8.560000 1.103296 3.657434 23.026799 3.475135 6.043770 11.756261 -3.986586 7.609635 -13.200890 -5.834196 1.163376 -4.286314 -0.827345 -12.286374 -18.368758 -1.838152 -40.321773 -7.384868 -5.016008 -13.255747 -4.586815 0.242470 -9.737044 -6.563845 2.201672 12.799269 -18.387445 -3.561606 53.579566 -10.649608 -3.317894 19.365550 -26.634995 2.409652 8.233172 -28.833125 0.743882 -76.891396 86.015959 -79.279960 3.815591 -25.461316 8.248799 -0.016745 -0.002581 -0.009791 -4.183146 -29.539850 -2.415902 145.720440 72.244897 156.453545 -4.183713 11.993064 -8.255261 0.003267 -0.002511 0.001910
-6.913008 130.447024 93.725739 174.797262 -48.734159 -2.921314 4.878269 28.699220 4.716759 0.713724 5.443627 0.677282 1.152175 8.459732 1.067587 3.648214 23.037544 3.492242 5.856973 11.949686 -3.836769 7.344599 -13.003615 -5.606319 1.218325 -4.239649 -0.757698 -12.220906 -18.396995 -1.822727 -39.621044 -7.088696 -5.217137 -13.196952 -4.503067 0.374977 -9.802211 -6.526743 2.121598 12.622565 -18.383351 -3.645606 52.893840 -10.449401 -2.960627 19.407667 -26.508642 2.321490 8.245663 -28.875579 0.722988 -76.771600 86.022277 -79.159968 3.789685 -25.456240 8.267168 -0.020119 -0.004554 -0.011763 -4.215237 -29.596571 -2.413876 145.731009 72.244934 156.461510 -4.192955 11.992696 -8.263520 0.005896 0.000261 0.003447
-6.912993 130.448264 93.715699 174.828183 -48.700585 -2.931545 4.869520 28.648063 4.691959 0.712365 5.394006 0.659012 1.135834 8.422868 1.063715 3.634481 23.019385 3.484607 5.670456 12.145659 -3.693199 7.083333 -12.803928 -5.387048 1.272367 -4.197344 -0.686206 -12.169375 -18.414568 -1.841220 -38.819412 -6.833855 -5.390474 -13.080148 -4.421010 0.517610 -9.836695 -6.493493 2.044075 12.462557 -18.360766 -3.690846 52.012963 -10.223467 -2.581050 19.418043 -26.321259 2.164025 8.256872 -28.900833 0.715814 -76.681738 86.024551 -79.081252 3.783089 -25.456859 8.278002 -0.019853 -0.007186 -0.011607 -4.242832 -29.635082 -2.416985 145.712130 72.246476 156.442472 -4.204228 12.002127 -8.272629 0.006339 -0.001895 0.003706
-6.910774 130.452021 93.704861 174.844969 -48.687834 -2.942508 4.865463 28.612877 4.674873 0.705926 5.392450 0.665528 1.120142 8.362544 1.043637 3.611981 22.983727 3.465340 5.484614 12.337235 -3.559021 6.827401 -12.609040 -5.180215 1.340283 -4.154584 -0.630488 -12.133940 -18.418130 -1.882121 -37.940923 -6.623310 -5.532006 -12.898346 -4.353328 0.648642 -9.845476 -6.466159 1.973271 12.315051 -18.318041 -3.695636 50.972358 -9.986085 -2.211247 19.372674 -26.086582 1.958832 8.267380 -28.908847 0.735853 -76.685742 86.002922 -79.088008 3.796124 -25.447152 8.245867 -0.014358 -0.007614 -0.008395 -4.262618 -29.647709 -2.410370 145.693996 72.242704 156.425989 -4.212285 12.004981 -8.277233 0.004627 -0.005080 0.002705
